G75*
%MOIN*%
%OFA0B0*%
%FSLAX25Y25*%
%IPPOS*%
%LPD*%
%AMOC8*
5,1,8,0,0,1.08239X$1,22.5*
%
%ADD10C,0.13098*%
%ADD11C,0.13886*%
%ADD12C,0.02862*%
%ADD13C,0.07783*%
%ADD14C,0.10500*%
%ADD15R,0.05224X0.13098*%
%ADD16R,0.06406X0.06406*%
%ADD17C,0.06406*%
%ADD18C,0.06500*%
%ADD19R,0.10343X0.05224*%
%ADD20C,0.05224*%
%ADD21R,0.03000X0.05500*%
%ADD22OC8,0.06500*%
%ADD23C,0.03469*%
%ADD24C,0.03075*%
%ADD25C,0.04634*%
D10*
X0095304Y0051813D03*
X0422076Y0051813D03*
X0516564Y0051813D03*
X0550028Y0051813D03*
X0646485Y0051813D03*
X1019517Y0051813D03*
X1019517Y0455356D03*
X0590383Y0455356D03*
X0476209Y0455356D03*
X0019517Y0455356D03*
D11*
X0047076Y0378584D03*
X0121879Y0378584D03*
X0196682Y0378584D03*
X0271485Y0378584D03*
X0346288Y0378584D03*
X0421091Y0378584D03*
X0495894Y0378584D03*
X0570698Y0378584D03*
X0645501Y0378584D03*
X0720304Y0378584D03*
X0795107Y0378584D03*
X0869910Y0378584D03*
X0869910Y0303781D03*
X0795107Y0303781D03*
X0720304Y0303781D03*
X0645501Y0303781D03*
X0570698Y0303781D03*
X0495894Y0303781D03*
X0421091Y0303781D03*
X0346288Y0303781D03*
X0271485Y0303781D03*
X0196682Y0303781D03*
X0121879Y0303781D03*
X0047076Y0303781D03*
X0047076Y0228978D03*
X0121879Y0228978D03*
X0196682Y0228978D03*
X0271485Y0228978D03*
X0346288Y0228978D03*
X0421091Y0228978D03*
X0495894Y0228978D03*
X0570698Y0228978D03*
X0645501Y0228978D03*
X0720304Y0228978D03*
X0795107Y0228978D03*
X0869910Y0228978D03*
X0869910Y0154175D03*
X0795107Y0154175D03*
X0720304Y0154175D03*
X0645501Y0154175D03*
X0570698Y0154175D03*
X0495894Y0154175D03*
X0421091Y0154175D03*
X0346288Y0154175D03*
X0271485Y0154175D03*
X0196682Y0154175D03*
X0121879Y0154175D03*
X0047076Y0154175D03*
X0047076Y0079372D03*
X0140580Y0079372D03*
X0252784Y0079372D03*
X0364989Y0079372D03*
X0477194Y0079372D03*
X0589398Y0079372D03*
X0701603Y0079372D03*
X0795107Y0079372D03*
X0869910Y0079372D03*
D12*
X0849359Y0062836D03*
X0774556Y0062836D03*
X0681052Y0062836D03*
X0568847Y0062836D03*
X0456643Y0062836D03*
X0344438Y0062836D03*
X0232233Y0062836D03*
X0120028Y0062836D03*
X0026524Y0062836D03*
X0026524Y0137639D03*
X0101328Y0137639D03*
X0176131Y0137639D03*
X0250934Y0137639D03*
X0325737Y0137639D03*
X0400540Y0137639D03*
X0475343Y0137639D03*
X0550146Y0137639D03*
X0624950Y0137639D03*
X0699753Y0137639D03*
X0774556Y0137639D03*
X0849359Y0137639D03*
X0849359Y0212443D03*
X0774556Y0212443D03*
X0699753Y0212443D03*
X0624950Y0212443D03*
X0550146Y0212443D03*
X0475343Y0212443D03*
X0400540Y0212443D03*
X0325737Y0212443D03*
X0250934Y0212443D03*
X0176131Y0212443D03*
X0101328Y0212443D03*
X0026524Y0212443D03*
X0026524Y0287246D03*
X0101328Y0287246D03*
X0176131Y0287246D03*
X0250934Y0287246D03*
X0325737Y0287246D03*
X0400540Y0287246D03*
X0475343Y0287246D03*
X0550146Y0287246D03*
X0624950Y0287246D03*
X0699753Y0287246D03*
X0774556Y0287246D03*
X0849359Y0287246D03*
X0849359Y0362049D03*
X0774556Y0362049D03*
X0699753Y0362049D03*
X0624950Y0362049D03*
X0550146Y0362049D03*
X0475343Y0362049D03*
X0400540Y0362049D03*
X0325737Y0362049D03*
X0250934Y0362049D03*
X0176131Y0362049D03*
X0101328Y0362049D03*
X0026524Y0362049D03*
D13*
X0025422Y0378584D03*
X0068729Y0378584D03*
X0100225Y0378584D03*
X0143532Y0378584D03*
X0175028Y0378584D03*
X0218335Y0378584D03*
X0249831Y0378584D03*
X0293139Y0378584D03*
X0324635Y0378584D03*
X0367942Y0378584D03*
X0399438Y0378584D03*
X0442745Y0378584D03*
X0474241Y0378584D03*
X0517548Y0378584D03*
X0549044Y0378584D03*
X0592351Y0378584D03*
X0623847Y0378584D03*
X0667154Y0378584D03*
X0698650Y0378584D03*
X0741957Y0378584D03*
X0773454Y0378584D03*
X0816761Y0378584D03*
X0848257Y0378584D03*
X0891564Y0378584D03*
X0891564Y0303781D03*
X0848257Y0303781D03*
X0816761Y0303781D03*
X0773454Y0303781D03*
X0741957Y0303781D03*
X0698650Y0303781D03*
X0667154Y0303781D03*
X0623847Y0303781D03*
X0592351Y0303781D03*
X0549044Y0303781D03*
X0517548Y0303781D03*
X0474241Y0303781D03*
X0442745Y0303781D03*
X0399438Y0303781D03*
X0367942Y0303781D03*
X0324635Y0303781D03*
X0293139Y0303781D03*
X0249831Y0303781D03*
X0218335Y0303781D03*
X0175028Y0303781D03*
X0143532Y0303781D03*
X0100225Y0303781D03*
X0068729Y0303781D03*
X0025422Y0303781D03*
X0025422Y0228978D03*
X0068729Y0228978D03*
X0100225Y0228978D03*
X0143532Y0228978D03*
X0175028Y0228978D03*
X0218335Y0228978D03*
X0249831Y0228978D03*
X0293139Y0228978D03*
X0324635Y0228978D03*
X0367942Y0228978D03*
X0399438Y0228978D03*
X0442745Y0228978D03*
X0474241Y0228978D03*
X0517548Y0228978D03*
X0549044Y0228978D03*
X0592351Y0228978D03*
X0623847Y0228978D03*
X0667154Y0228978D03*
X0698650Y0228978D03*
X0741957Y0228978D03*
X0773454Y0228978D03*
X0816761Y0228978D03*
X0848257Y0228978D03*
X0891564Y0228978D03*
X0891564Y0154175D03*
X0848257Y0154175D03*
X0816761Y0154175D03*
X0773454Y0154175D03*
X0741957Y0154175D03*
X0698650Y0154175D03*
X0667154Y0154175D03*
X0623847Y0154175D03*
X0592351Y0154175D03*
X0549044Y0154175D03*
X0517548Y0154175D03*
X0474241Y0154175D03*
X0442745Y0154175D03*
X0399438Y0154175D03*
X0367942Y0154175D03*
X0324635Y0154175D03*
X0293139Y0154175D03*
X0249831Y0154175D03*
X0218335Y0154175D03*
X0175028Y0154175D03*
X0143532Y0154175D03*
X0100225Y0154175D03*
X0068729Y0154175D03*
X0025422Y0154175D03*
X0025422Y0079372D03*
X0068729Y0079372D03*
X0118926Y0079372D03*
X0162233Y0079372D03*
X0231131Y0079372D03*
X0274438Y0079372D03*
X0343335Y0079372D03*
X0386643Y0079372D03*
X0455540Y0079372D03*
X0498847Y0079372D03*
X0567745Y0079372D03*
X0611052Y0079372D03*
X0679950Y0079372D03*
X0723257Y0079372D03*
X0773454Y0079372D03*
X0816761Y0079372D03*
X0848257Y0079372D03*
X0891564Y0079372D03*
D14*
X0889595Y0094332D03*
X0869910Y0102600D03*
X0814792Y0094332D03*
X0795107Y0102600D03*
X0721288Y0094332D03*
X0701603Y0102600D03*
X0609083Y0094332D03*
X0589398Y0102600D03*
X0496879Y0094332D03*
X0477194Y0102600D03*
X0384674Y0094332D03*
X0364989Y0102600D03*
X0272469Y0094332D03*
X0252784Y0102600D03*
X0160265Y0094332D03*
X0140580Y0102600D03*
X0066761Y0094332D03*
X0047076Y0102600D03*
X0066761Y0169135D03*
X0047076Y0177403D03*
X0121879Y0177403D03*
X0141564Y0169135D03*
X0196682Y0177403D03*
X0216367Y0169135D03*
X0271485Y0177403D03*
X0291170Y0169135D03*
X0346288Y0177403D03*
X0365973Y0169135D03*
X0421091Y0177403D03*
X0440776Y0169135D03*
X0495894Y0177403D03*
X0515580Y0169135D03*
X0570698Y0177403D03*
X0590383Y0169135D03*
X0645501Y0177403D03*
X0665186Y0169135D03*
X0720304Y0177403D03*
X0739989Y0169135D03*
X0795107Y0177403D03*
X0814792Y0169135D03*
X0869910Y0177403D03*
X0889595Y0169135D03*
X0889595Y0243939D03*
X0869910Y0252206D03*
X0814792Y0243939D03*
X0795107Y0252206D03*
X0739989Y0243939D03*
X0720304Y0252206D03*
X0665186Y0243939D03*
X0645501Y0252206D03*
X0590383Y0243939D03*
X0570698Y0252206D03*
X0515580Y0243939D03*
X0495894Y0252206D03*
X0440776Y0243939D03*
X0421091Y0252206D03*
X0365973Y0243939D03*
X0346288Y0252206D03*
X0291170Y0243939D03*
X0271485Y0252206D03*
X0216367Y0243939D03*
X0196682Y0252206D03*
X0141564Y0243939D03*
X0121879Y0252206D03*
X0066761Y0243939D03*
X0047076Y0252206D03*
X0066761Y0318742D03*
X0047076Y0327009D03*
X0121879Y0327009D03*
X0141564Y0318742D03*
X0196682Y0327009D03*
X0216367Y0318742D03*
X0271485Y0327009D03*
X0291170Y0318742D03*
X0346288Y0327009D03*
X0365973Y0318742D03*
X0421091Y0327009D03*
X0440776Y0318742D03*
X0495894Y0327009D03*
X0515580Y0318742D03*
X0570698Y0327009D03*
X0590383Y0318742D03*
X0645501Y0327009D03*
X0665186Y0318742D03*
X0720304Y0327009D03*
X0739989Y0318742D03*
X0795107Y0327009D03*
X0814792Y0318742D03*
X0869910Y0327009D03*
X0889595Y0318742D03*
X0889595Y0393545D03*
X0869910Y0401813D03*
X0814792Y0393545D03*
X0795107Y0401813D03*
X0739989Y0393545D03*
X0720304Y0401813D03*
X0665186Y0393545D03*
X0645501Y0401813D03*
X0590383Y0393545D03*
X0570698Y0401813D03*
X0515580Y0393545D03*
X0495894Y0401813D03*
X0440776Y0393545D03*
X0421091Y0401813D03*
X0365973Y0393545D03*
X0346288Y0401813D03*
X0291170Y0393545D03*
X0271485Y0401813D03*
X0216367Y0393545D03*
X0196682Y0401813D03*
X0141564Y0393545D03*
X0121879Y0401813D03*
X0066761Y0393545D03*
X0047076Y0401813D03*
D15*
X0920107Y0396694D03*
X0935855Y0396694D03*
X0935855Y0423466D03*
X0920107Y0423466D03*
X1004753Y0423466D03*
X1020501Y0423466D03*
X1020501Y0396694D03*
X1004753Y0396694D03*
X1004753Y0311261D03*
X1020501Y0311261D03*
X1020501Y0284490D03*
X1004753Y0284490D03*
X0935855Y0284490D03*
X0920107Y0284490D03*
X0920107Y0311261D03*
X0935855Y0311261D03*
X0935855Y0199057D03*
X0920107Y0199057D03*
X0920107Y0172285D03*
X0935855Y0172285D03*
X1004753Y0172285D03*
X1020501Y0172285D03*
X1020501Y0199057D03*
X1004753Y0199057D03*
D16*
X0985304Y0221380D03*
X0985304Y0333584D03*
X0985304Y0109175D03*
D17*
X0975304Y0109175D03*
X0965304Y0109175D03*
X0955304Y0109175D03*
X0955304Y0221380D03*
X0965304Y0221380D03*
X0975304Y0221380D03*
X0975304Y0333584D03*
X0965304Y0333584D03*
X0955304Y0333584D03*
D18*
X0569997Y0428545D02*
X0563997Y0428545D01*
X0563997Y0438545D02*
X0569997Y0438545D01*
X0569997Y0448545D02*
X0563997Y0448545D01*
X0563997Y0458545D02*
X0569997Y0458545D01*
X0502595Y0458545D02*
X0496595Y0458545D01*
X0496595Y0448545D02*
X0502595Y0448545D01*
X0502595Y0438545D02*
X0496595Y0438545D01*
X0496595Y0428545D02*
X0502595Y0428545D01*
D19*
X0284280Y0430946D03*
X0258690Y0426616D03*
X0284280Y0446694D03*
X0284280Y0458506D03*
X0782312Y0426616D03*
X0807902Y0430946D03*
X0807902Y0446694D03*
X0807902Y0458506D03*
D20*
X0795107Y0464805D03*
X0795107Y0437246D03*
X0271485Y0437246D03*
X0271485Y0464805D03*
D21*
X0531296Y0456340D03*
X0535296Y0456340D03*
X0535296Y0448466D03*
X0531296Y0448466D03*
X0531296Y0440592D03*
X0535296Y0440592D03*
X0535296Y0432718D03*
X0531296Y0432718D03*
D22*
X0843847Y0452324D03*
X0853847Y0452324D03*
X0863847Y0452324D03*
X0873847Y0452324D03*
X0883847Y0452324D03*
X0893847Y0452324D03*
X0903847Y0452324D03*
X0903847Y0462324D03*
X0893847Y0462324D03*
X0883847Y0462324D03*
X0873847Y0462324D03*
X0863847Y0462324D03*
X0853847Y0462324D03*
X0843847Y0462324D03*
D23*
X0022469Y0040002D03*
X0042154Y0040002D03*
X0061839Y0040002D03*
X0081524Y0040002D03*
X0101209Y0040002D03*
X0120894Y0040002D03*
X0140580Y0040002D03*
X0160265Y0040002D03*
X0179950Y0040002D03*
X0199635Y0040002D03*
X0219320Y0040002D03*
X0239005Y0040002D03*
X0258690Y0040002D03*
X0278375Y0040002D03*
X0298060Y0040002D03*
X0317745Y0040002D03*
X0337430Y0040002D03*
X0357115Y0040002D03*
X0376800Y0040002D03*
X0396485Y0040002D03*
X0416170Y0040002D03*
X0435855Y0040002D03*
X0455540Y0040002D03*
X0475225Y0040002D03*
X0494910Y0040002D03*
X0512627Y0040002D03*
X0555934Y0040002D03*
X0575619Y0040002D03*
X0595304Y0040002D03*
X0614989Y0040002D03*
X0634674Y0040002D03*
X0654359Y0040002D03*
X0674044Y0040002D03*
X0693729Y0040002D03*
X0713414Y0040002D03*
X0733099Y0040002D03*
X0752784Y0040002D03*
X0772469Y0040002D03*
X0792154Y0040002D03*
X0811839Y0040002D03*
X0831524Y0040002D03*
X0851209Y0040002D03*
X0870894Y0040002D03*
X0890580Y0040002D03*
X0910265Y0040002D03*
X0929950Y0040002D03*
X0949635Y0040002D03*
X0969320Y0040002D03*
X0989005Y0040002D03*
X1008690Y0040002D03*
X1030343Y0057718D03*
X1030343Y0075435D03*
X1030343Y0095120D03*
X1030343Y0114805D03*
X1030343Y0134490D03*
X1030343Y0146301D03*
X1001800Y0142364D03*
X0999831Y0146301D03*
X0973257Y0153191D03*
X0968335Y0146301D03*
X0970304Y0142364D03*
X0956524Y0153191D03*
X0943729Y0154175D03*
X0933887Y0145317D03*
X0923060Y0154175D03*
X0918139Y0159096D03*
X0949635Y0141380D03*
X0969320Y0177797D03*
X0966367Y0181734D03*
X0958493Y0192561D03*
X0962430Y0195513D03*
X0955540Y0198466D03*
X0940776Y0195513D03*
X0926997Y0193545D03*
X0909280Y0201419D03*
X0915186Y0208309D03*
X0926997Y0208309D03*
X0974241Y0193545D03*
X0980146Y0188624D03*
X0983099Y0184687D03*
X1008690Y0190592D03*
X1011643Y0187639D03*
X1014595Y0184687D03*
X1017548Y0181734D03*
X1030343Y0173860D03*
X1030343Y0193545D03*
X1030343Y0219135D03*
X1030343Y0232915D03*
X1025422Y0252600D03*
X1030343Y0260474D03*
X1030343Y0272285D03*
X1017548Y0268348D03*
X1011643Y0261458D03*
X1008690Y0256537D03*
X0974241Y0252600D03*
X0970304Y0256537D03*
X0966367Y0259490D03*
X0920107Y0274254D03*
X1030343Y0291970D03*
X1030343Y0311655D03*
X1030343Y0331340D03*
X1030343Y0351025D03*
X1025422Y0362836D03*
X1030343Y0370710D03*
X1014595Y0372679D03*
X1010658Y0368742D03*
X1007706Y0365789D03*
X1019517Y0384490D03*
X1030343Y0390395D03*
X1007706Y0405159D03*
X1030343Y0410080D03*
X1030343Y0429765D03*
X1000816Y0432718D03*
X1001800Y0441576D03*
X1003769Y0450435D03*
X1002784Y0460277D03*
X1006721Y0466183D03*
X1030343Y0449450D03*
X0919123Y0453387D03*
X0915186Y0450435D03*
X0911249Y0453387D03*
X0914202Y0433702D03*
X0909280Y0425828D03*
X0914202Y0419923D03*
X0917154Y0412049D03*
X0909280Y0410080D03*
X0893532Y0425828D03*
X0883690Y0438624D03*
X0873847Y0433702D03*
X0869910Y0425828D03*
X0864005Y0419923D03*
X0854162Y0413033D03*
X0843335Y0408112D03*
X0837430Y0411065D03*
X0814792Y0417954D03*
X0755737Y0417954D03*
X0676997Y0417954D03*
X0617942Y0417954D03*
X0558887Y0417954D03*
X0551997Y0433702D03*
X0551013Y0443545D03*
X0521485Y0443545D03*
X0521485Y0453387D03*
X0520501Y0464214D03*
X0504753Y0467167D03*
X0485068Y0467167D03*
X0465383Y0467167D03*
X0445698Y0467167D03*
X0426013Y0467167D03*
X0406328Y0467167D03*
X0386643Y0467167D03*
X0366957Y0467167D03*
X0347272Y0467167D03*
X0327587Y0467167D03*
X0307902Y0467167D03*
X0292351Y0458309D03*
X0288217Y0467167D03*
X0266564Y0454372D03*
X0260658Y0456340D03*
X0273454Y0451419D03*
X0293139Y0437639D03*
X0332509Y0437639D03*
X0344320Y0414017D03*
X0324635Y0402206D03*
X0287233Y0414017D03*
X0246879Y0437639D03*
X0234083Y0437639D03*
X0220304Y0414017D03*
X0173060Y0415986D03*
X0139595Y0414017D03*
X0104162Y0415986D03*
X0095304Y0422876D03*
X0083493Y0414017D03*
X0070698Y0417954D03*
X0057902Y0429765D03*
X0051013Y0437639D03*
X0054950Y0441576D03*
X0058887Y0445513D03*
X0062824Y0459293D03*
X0071682Y0456340D03*
X0083493Y0459293D03*
X0107115Y0456340D03*
X0130737Y0467167D03*
X0150422Y0467167D03*
X0170107Y0467167D03*
X0189792Y0467167D03*
X0209477Y0467167D03*
X0229162Y0467167D03*
X0248847Y0467167D03*
X0045107Y0459293D03*
X0032312Y0464214D03*
X0007706Y0447482D03*
X0033296Y0441576D03*
X0007706Y0427797D03*
X0036249Y0418939D03*
X0007706Y0408112D03*
X0007706Y0388427D03*
X0007706Y0368742D03*
X0007706Y0349057D03*
X0007706Y0329372D03*
X0007706Y0309687D03*
X0007706Y0290002D03*
X0007706Y0270317D03*
X0007706Y0250631D03*
X0007706Y0230946D03*
X0007706Y0211261D03*
X0007706Y0191576D03*
X0007706Y0171891D03*
X0007706Y0152206D03*
X0007706Y0132521D03*
X0007706Y0112836D03*
X0007706Y0093151D03*
X0007706Y0073466D03*
X0007706Y0053781D03*
X0527391Y0066576D03*
X0539202Y0066576D03*
X0539202Y0086261D03*
X0527391Y0086261D03*
X0527391Y0105946D03*
X0539202Y0105946D03*
X0539202Y0125631D03*
X0527391Y0125631D03*
X0527391Y0145317D03*
X0539202Y0145317D03*
X0539202Y0165002D03*
X0527391Y0165002D03*
X0527391Y0184687D03*
X0539202Y0184687D03*
X0539202Y0204372D03*
X0527391Y0204372D03*
X0527391Y0221104D03*
X0539202Y0221104D03*
X0539202Y0243742D03*
X0527391Y0243742D03*
X0527391Y0263427D03*
X0539202Y0263427D03*
X0539202Y0283112D03*
X0527391Y0283112D03*
X0527391Y0322482D03*
X0539202Y0322482D03*
X0539202Y0342167D03*
X0527391Y0342167D03*
X0527391Y0361852D03*
X0539202Y0361852D03*
X0539202Y0379569D03*
X0527391Y0379569D03*
X0527391Y0401222D03*
X0526406Y0415986D03*
X0539202Y0415986D03*
X0521485Y0433702D03*
X0464398Y0410080D03*
X0549044Y0467167D03*
X0563808Y0467167D03*
X0583493Y0467167D03*
X0603178Y0467167D03*
X0622863Y0467167D03*
X0642548Y0467167D03*
X0662233Y0467167D03*
X0681918Y0467167D03*
X0701603Y0467167D03*
X0721288Y0467167D03*
X0740973Y0467167D03*
X0760658Y0467167D03*
X0780343Y0467167D03*
X0809871Y0467167D03*
X0827587Y0467167D03*
X0877784Y0416970D03*
X0917154Y0386458D03*
X0938808Y0365789D03*
X0966367Y0372679D03*
X0969320Y0368742D03*
X0973257Y0363820D03*
X0860068Y0370710D03*
X0856131Y0364805D03*
D24*
X0536249Y0383506D03*
X0536249Y0385474D03*
X0536249Y0387443D03*
X0530343Y0387443D03*
X0530343Y0385474D03*
X0530343Y0383506D03*
X0528375Y0430750D03*
X0528375Y0432718D03*
X0528375Y0434687D03*
X0528375Y0438624D03*
X0528375Y0440592D03*
X0528375Y0442561D03*
X0528375Y0446498D03*
X0528375Y0448466D03*
X0528375Y0450435D03*
X0528375Y0454372D03*
X0528375Y0456340D03*
X0528375Y0458309D03*
X0538217Y0458309D03*
X0538217Y0456340D03*
X0538217Y0454372D03*
X0538217Y0450435D03*
X0538217Y0448466D03*
X0538217Y0446498D03*
X0538217Y0442561D03*
X0538217Y0440592D03*
X0538217Y0438624D03*
X0538217Y0434687D03*
X0538217Y0432718D03*
X0538217Y0430750D03*
X0536249Y0305750D03*
X0536249Y0303781D03*
X0536249Y0301813D03*
X0530343Y0301813D03*
X0530343Y0303781D03*
X0530343Y0305750D03*
X0530343Y0230946D03*
X0530343Y0228978D03*
X0530343Y0227009D03*
X0536249Y0227009D03*
X0536249Y0228978D03*
X0536249Y0230946D03*
X0536249Y0156143D03*
X0536249Y0154175D03*
X0536249Y0152206D03*
X0530343Y0152206D03*
X0530343Y0154175D03*
X0530343Y0156143D03*
X0530343Y0081340D03*
X0530343Y0079372D03*
X0530343Y0077403D03*
X0536249Y0077403D03*
X0536249Y0079372D03*
X0536249Y0081340D03*
X0536249Y0059687D03*
X0536249Y0057718D03*
X0536249Y0055750D03*
X0530343Y0055750D03*
X0530343Y0057718D03*
X0530343Y0059687D03*
D25*
X1025422Y0154175D03*
X1025422Y0211261D03*
X0824635Y0366773D03*
X0830540Y0370710D03*
X0901406Y0378584D03*
X0901406Y0438624D03*
X0917154Y0438624D03*
X0830540Y0458309D03*
X0824635Y0446498D03*
X1025422Y0378584D03*
M02*
