%
M48
M72
T01C0.01575
T02C0.01969
T03C0.02362
T04C0.02756
T05C0.03937
T06C0.04000
T07C0.04724
T08C0.07283
T09C0.12598
T10C0.13386
%
T01
X530343Y55750
X530343Y57718
X530343Y59687
X536249Y59687
X536249Y57718
X536249Y55750
X536249Y77403
X536249Y79372
X536249Y81340
X530343Y81340
X530343Y79372
X530343Y77403
X530343Y152206
X530343Y154175
X530343Y156143
X536249Y156143
X536249Y154175
X536249Y152206
X536249Y227009
X536249Y228978
X536249Y230946
X530343Y230946
X530343Y228978
X530343Y227009
X530343Y301813
X530343Y303781
X530343Y305750
X536249Y305750
X536249Y303781
X536249Y301813
X536249Y383506
X536249Y385474
X536249Y387443
X530343Y387443
X530343Y385474
X530343Y383506
X528375Y430750
X528375Y432718
X528375Y434687
X528375Y438624
X528375Y440592
X528375Y442561
X528375Y446498
X528375Y448466
X528375Y450435
X528375Y454372
X528375Y456340
X528375Y458309
X538217Y458309
X538217Y456340
X538217Y454372
X538217Y450435
X538217Y448466
X538217Y446498
X538217Y442561
X538217Y440592
X538217Y438624
X538217Y434687
X538217Y432718
X538217Y430750
T02
X22469Y40002
X42154Y40002
X61839Y40002
X81524Y40002
X101209Y40002
X120894Y40002
X140580Y40002
X160265Y40002
X179950Y40002
X199635Y40002
X219320Y40002
X239005Y40002
X258690Y40002
X278375Y40002
X298060Y40002
X317745Y40002
X337430Y40002
X357115Y40002
X376800Y40002
X396485Y40002
X416170Y40002
X435855Y40002
X455540Y40002
X475225Y40002
X494910Y40002
X512627Y40002
X555934Y40002
X575619Y40002
X595304Y40002
X614989Y40002
X634674Y40002
X654359Y40002
X674044Y40002
X693729Y40002
X713414Y40002
X733099Y40002
X752784Y40002
X772469Y40002
X792154Y40002
X811839Y40002
X831524Y40002
X851209Y40002
X870894Y40002
X890580Y40002
X910265Y40002
X929950Y40002
X949635Y40002
X969320Y40002
X989005Y40002
X1008690Y40002
X1030343Y57718
X1030343Y75435
X1030343Y95120
X1030343Y114805
X1030343Y134490
X1030343Y146301
X1001800Y142364
X999831Y146301
X973257Y153191
X968335Y146301
X970304Y142364
X956524Y153191
X943729Y154175
X933887Y145317
X923060Y154175
X918139Y159096
X949635Y141380
X969320Y177797
X966367Y181734
X958493Y192561
X962430Y195513
X955540Y198466
X940776Y195513
X926997Y193545
X909280Y201419
X915186Y208309
X926997Y208309
X974241Y193545
X980146Y188624
X983099Y184687
X1008690Y190592
X1011643Y187639
X1014595Y184687
X1017548Y181734
X1030343Y173860
X1030343Y193545
X1030343Y219135
X1030343Y232915
X1025422Y252600
X1030343Y260474
X1030343Y272285
X1017548Y268348
X1011643Y261458
X1008690Y256537
X974241Y252600
X970304Y256537
X966367Y259490
X920107Y274254
X1030343Y291970
X1030343Y311655
X1030343Y331340
X1030343Y351025
X1025422Y362836
X1030343Y370710
X1014595Y372679
X1010658Y368742
X1007706Y365789
X1019517Y384490
X1030343Y390395
X1007706Y405159
X1030343Y410080
X1030343Y429765
X1000816Y432718
X1001800Y441576
X1003769Y450435
X1002784Y460277
X1006721Y466183
X1030343Y449450
X919123Y453387
X915186Y450435
X911249Y453387
X914202Y433702
X909280Y425828
X914202Y419923
X917154Y412049
X909280Y410080
X893532Y425828
X883690Y438624
X873847Y433702
X869910Y425828
X864005Y419923
X854162Y413033
X843335Y408112
X837430Y411065
X814792Y417954
X755737Y417954
X676997Y417954
X617942Y417954
X558887Y417954
X551997Y433702
X551013Y443545
X521485Y443545
X521485Y453387
X520501Y464214
X504753Y467167
X485068Y467167
X465383Y467167
X445698Y467167
X426013Y467167
X406328Y467167
X386643Y467167
X366957Y467167
X347272Y467167
X327587Y467167
X307902Y467167
X292351Y458309
X288217Y467167
X266564Y454372
X260658Y456340
X273454Y451419
X293139Y437639
X332509Y437639
X344320Y414017
X324635Y402206
X287233Y414017
X246879Y437639
X234083Y437639
X220304Y414017
X173060Y415986
X139595Y414017
X104162Y415986
X95304Y422876
X83493Y414017
X70698Y417954
X57902Y429765
X51013Y437639
X54950Y441576
X58887Y445513
X62824Y459293
X71682Y456340
X83493Y459293
X107115Y456340
X130737Y467167
X150422Y467167
X170107Y467167
X189792Y467167
X209477Y467167
X229162Y467167
X248847Y467167
X45107Y459293
X32312Y464214
X7706Y447482
X33296Y441576
X7706Y427797
X36249Y418939
X7706Y408112
X7706Y388427
X7706Y368742
X7706Y349057
X7706Y329372
X7706Y309687
X7706Y290002
X7706Y270317
X7706Y250631
X7706Y230946
X7706Y211261
X7706Y191576
X7706Y171891
X7706Y152206
X7706Y132521
X7706Y112836
X7706Y93151
X7706Y73466
X7706Y53781
X527391Y66576
X539202Y66576
X539202Y86261
X527391Y86261
X527391Y105946
X539202Y105946
X539202Y125631
X527391Y125631
X527391Y145317
X539202Y145317
X539202Y165002
X527391Y165002
X527391Y184687
X539202Y184687
X539202Y204372
X527391Y204372
X527391Y221104
X539202Y221104
X539202Y243742
X527391Y243742
X527391Y263427
X539202Y263427
X539202Y283112
X527391Y283112
X527391Y322482
X539202Y322482
X539202Y342167
X527391Y342167
X527391Y361852
X539202Y361852
X539202Y379569
X527391Y379569
X527391Y401222
X526406Y415986
X539202Y415986
X521485Y433702
X464398Y410080
X549044Y467167
X563808Y467167
X583493Y467167
X603178Y467167
X622863Y467167
X642548Y467167
X662233Y467167
X681918Y467167
X701603Y467167
X721288Y467167
X740973Y467167
X760658Y467167
X780343Y467167
X809871Y467167
X827587Y467167
X877784Y416970
X917154Y386458
X938808Y365789
X966367Y372679
X969320Y368742
X973257Y363820
X860068Y370710
X856131Y364805
T03
X849359Y362049
X774556Y362049
X699753Y362049
X624950Y362049
X550146Y362049
X475343Y362049
X400540Y362049
X325737Y362049
X250934Y362049
X176131Y362049
X101328Y362049
X26524Y362049
X26524Y287246
X101328Y287246
X176131Y287246
X250934Y287246
X325737Y287246
X400540Y287246
X475343Y287246
X550146Y287246
X624950Y287246
X699753Y287246
X774556Y287246
X849359Y287246
X849359Y212443
X774556Y212443
X699753Y212443
X624950Y212443
X550146Y212443
X475343Y212443
X400540Y212443
X325737Y212443
X250934Y212443
X176131Y212443
X101328Y212443
X26524Y212443
X26524Y137639
X101328Y137639
X176131Y137639
X250934Y137639
X325737Y137639
X400540Y137639
X475343Y137639
X550146Y137639
X624950Y137639
X699753Y137639
X774556Y137639
X849359Y137639
X849359Y62836
X774556Y62836
X681052Y62836
X568847Y62836
X456643Y62836
X344438Y62836
X232233Y62836
X120028Y62836
X26524Y62836
T04
X824635Y366773
X830540Y370710
X901406Y378584
X901406Y438624
X917154Y438624
X830540Y458309
X824635Y446498
X1025422Y378584
X1025422Y211261
X1025422Y154175
T05
X985304Y109175
X975304Y109175
X965304Y109175
X955304Y109175
X955304Y221380
X965304Y221380
X975304Y221380
X985304Y221380
X985304Y333584
X975304Y333584
X965304Y333584
X955304Y333584
T06
X903847Y452324
X893847Y452324
X883847Y452324
X873847Y452324
X863847Y452324
X853847Y452324
X843847Y452324
X843847Y462324
X853847Y462324
X863847Y462324
X873847Y462324
X883847Y462324
X893847Y462324
X903847Y462324
X566997Y458545
X566997Y448545
X566997Y438545
X566997Y428545
X499595Y428545
X499595Y438545
X499595Y448545
X499595Y458545
T07
X495894Y401813
X515580Y393545
X570698Y401813
X590383Y393545
X645501Y401813
X665186Y393545
X720304Y401813
X739989Y393545
X795107Y401813
X814792Y393545
X869910Y401813
X889595Y393545
X795107Y437246
X795107Y464805
X795107Y327009
X814792Y318742
X869910Y327009
X889595Y318742
X869910Y252206
X889595Y243939
X814792Y243939
X795107Y252206
X739989Y243939
X720304Y252206
X665186Y243939
X645501Y252206
X590383Y243939
X570698Y252206
X515580Y243939
X495894Y252206
X440776Y243939
X421091Y252206
X365973Y243939
X346288Y252206
X291170Y243939
X271485Y252206
X216367Y243939
X196682Y252206
X141564Y243939
X121879Y252206
X66761Y243939
X47076Y252206
X66761Y318742
X47076Y327009
X121879Y327009
X141564Y318742
X196682Y327009
X216367Y318742
X271485Y327009
X291170Y318742
X346288Y327009
X365973Y318742
X421091Y327009
X440776Y318742
X495894Y327009
X515580Y318742
X570698Y327009
X590383Y318742
X645501Y327009
X665186Y318742
X720304Y327009
X739989Y318742
X720304Y177403
X739989Y169135
X795107Y177403
X814792Y169135
X869910Y177403
X889595Y169135
X869910Y102600
X889595Y94332
X814792Y94332
X795107Y102600
X721288Y94332
X701603Y102600
X609083Y94332
X589398Y102600
X496879Y94332
X477194Y102600
X384674Y94332
X364989Y102600
X272469Y94332
X252784Y102600
X160265Y94332
X140580Y102600
X66761Y94332
X47076Y102600
X66761Y169135
X47076Y177403
X121879Y177403
X141564Y169135
X196682Y177403
X216367Y169135
X271485Y177403
X291170Y169135
X346288Y177403
X365973Y169135
X421091Y177403
X440776Y169135
X495894Y177403
X515580Y169135
X570698Y177403
X590383Y169135
X645501Y177403
X665186Y169135
X440776Y393545
X421091Y401813
X365973Y393545
X346288Y401813
X291170Y393545
X271485Y401813
X216367Y393545
X196682Y401813
X141564Y393545
X121879Y401813
X66761Y393545
X47076Y401813
X271485Y437246
X271485Y464805
T08
X249831Y378584
X218335Y378584
X175028Y378584
X143532Y378584
X100225Y378584
X68729Y378584
X25422Y378584
X25422Y303781
X68729Y303781
X100225Y303781
X143532Y303781
X175028Y303781
X218335Y303781
X249831Y303781
X293139Y303781
X324635Y303781
X367942Y303781
X399438Y303781
X442745Y303781
X474241Y303781
X517548Y303781
X549044Y303781
X592351Y303781
X623847Y303781
X667154Y303781
X698650Y303781
X741957Y303781
X773454Y303781
X816761Y303781
X848257Y303781
X891564Y303781
X891564Y228978
X848257Y228978
X816761Y228978
X773454Y228978
X741957Y228978
X698650Y228978
X667154Y228978
X623847Y228978
X592351Y228978
X549044Y228978
X517548Y228978
X474241Y228978
X442745Y228978
X399438Y228978
X367942Y228978
X324635Y228978
X293139Y228978
X249831Y228978
X218335Y228978
X175028Y228978
X143532Y228978
X100225Y228978
X68729Y228978
X25422Y228978
X25422Y154175
X68729Y154175
X100225Y154175
X143532Y154175
X175028Y154175
X218335Y154175
X249831Y154175
X293139Y154175
X324635Y154175
X367942Y154175
X399438Y154175
X442745Y154175
X474241Y154175
X517548Y154175
X549044Y154175
X592351Y154175
X623847Y154175
X667154Y154175
X698650Y154175
X741957Y154175
X773454Y154175
X816761Y154175
X848257Y154175
X891564Y154175
X891564Y79372
X848257Y79372
X816761Y79372
X773454Y79372
X723257Y79372
X679950Y79372
X611052Y79372
X567745Y79372
X498847Y79372
X455540Y79372
X386643Y79372
X343335Y79372
X274438Y79372
X231131Y79372
X162233Y79372
X118926Y79372
X68729Y79372
X25422Y79372
X293139Y378584
X324635Y378584
X367942Y378584
X399438Y378584
X442745Y378584
X474241Y378584
X517548Y378584
X549044Y378584
X592351Y378584
X623847Y378584
X667154Y378584
X698650Y378584
X741957Y378584
X773454Y378584
X816761Y378584
X848257Y378584
X891564Y378584
T09
X1019517Y455356
X590383Y455356
X476209Y455356
X19517Y455356
X95304Y51813
X422076Y51813
X516564Y51813
X550028Y51813
X646485Y51813
X1019517Y51813
T10
X869910Y79372
X795107Y79372
X701603Y79372
X589398Y79372
X477194Y79372
X364989Y79372
X252784Y79372
X140580Y79372
X47076Y79372
X47076Y154175
X121879Y154175
X196682Y154175
X271485Y154175
X346288Y154175
X421091Y154175
X495894Y154175
X570698Y154175
X645501Y154175
X720304Y154175
X795107Y154175
X869910Y154175
X869910Y228978
X795107Y228978
X720304Y228978
X645501Y228978
X570698Y228978
X495894Y228978
X421091Y228978
X346288Y228978
X271485Y228978
X196682Y228978
X121879Y228978
X47076Y228978
X47076Y303781
X121879Y303781
X196682Y303781
X271485Y303781
X346288Y303781
X421091Y303781
X495894Y303781
X570698Y303781
X645501Y303781
X720304Y303781
X795107Y303781
X869910Y303781
X869910Y378584
X795107Y378584
X720304Y378584
X645501Y378584
X570698Y378584
X495894Y378584
X421091Y378584
X346288Y378584
X271485Y378584
X196682Y378584
X121879Y378584
X47076Y378584
M30
